<?xml version="1.0" encoding="utf-8"?>
<!-- Generator: Adobe Illustrator 16.0.0, SVG Export Plug-In . SVG Version: 6.00 Build 0)  -->
<!DOCTYPE svg PUBLIC "-//W3C//DTD SVG 1.1//EN" "http://www.w3.org/Graphics/SVG/1.1/DTD/svg11.dtd">
<svg version="1.1" id="Layer_1" xmlns="http://www.w3.org/2000/svg" xmlns:xlink="http://www.w3.org/1999/xlink" x="0px" y="0px"
	 width="25px" height="25px" viewBox="0 0 25 25" enable-background="new 0 0 25 25" xml:space="preserve">
<line opacity="0.2" fill="none" stroke="#1E1E1C" stroke-width="0.2" x1="2.155" y1="0" x2="2.155" y2="25"/>
<line opacity="0.2" fill="none" stroke="#1E1E1C" stroke-width="0.2" x1="0" y1="2.155" x2="25" y2="2.155"/>
<line opacity="0.2" fill="none" stroke="#1E1E1C" stroke-width="0.1" x1="2.155" y1="0" x2="2.155" y2="25"/>
<line opacity="0.2" fill="none" stroke="#1E1E1C" stroke-width="0.1" x1="10.432" y1="0" x2="10.432" y2="25"/>
<line opacity="0.2" fill="none" stroke="#1E1E1C" stroke-width="0.1" x1="18.707" y1="0" x2="18.707" y2="25"/>
<line opacity="0.2" fill="none" stroke="#1E1E1C" stroke-width="0.1" x1="0" y1="22.845" x2="25" y2="22.845"/>
<line opacity="0.2" fill="none" stroke="#1E1E1C" stroke-width="0.1" x1="0" y1="14.568" x2="25" y2="14.568"/>
<line opacity="0.2" fill="none" stroke="#1E1E1C" stroke-width="0.1" x1="0" y1="6.293" x2="25" y2="6.293"/>
<line opacity="0.2" fill="none" stroke="#1E1E1C" stroke-width="0.1" x1="0" y1="18.707" x2="25" y2="18.707"/>
<line opacity="0.2" fill="none" stroke="#1E1E1C" stroke-width="0.1" x1="0" y1="10.432" x2="25" y2="10.432"/>
<line opacity="0.2" fill="none" stroke="#1E1E1C" stroke-width="0.1" x1="0" y1="2.155" x2="25" y2="2.155"/>
<line opacity="0.2" fill="none" stroke="#1E1E1C" stroke-width="0.1" x1="6.293" y1="0" x2="6.293" y2="25"/>
<line opacity="0.2" fill="none" stroke="#1E1E1C" stroke-width="0.1" x1="14.568" y1="0" x2="14.568" y2="25"/>
<line opacity="0.2" fill="none" stroke="#1E1E1C" stroke-width="0.1" x1="22.845" y1="0" x2="22.845" y2="25"/>
</svg>
